# WaveFront *.obj file (generated by Autodesk ATF)

mtllib arrow.mtl

g Solid1

v -4.368403 1.745984 0.000000
v -4.368403 1.745984 1.000000
v -4.363561 1.704017 0.000000
v -4.363561 1.704017 1.000000
v -4.355485 1.786205 0.000000
v -4.355485 1.786205 1.000000
v -4.341822 1.667795 0.000000
v -4.341822 1.667795 1.000000
v -4.307066 1.643782 0.000000
v -4.307066 1.643782 1.000000
v -4.265495 1.636262 0.000000
v -4.265495 1.636262 1.000000
v -4.224530 1.646579 0.000000
v -4.224530 1.646579 1.000000
v -3.110470 2.197896 0.000000
v -3.110470 2.197896 1.000000
v -3.071461 2.208127 0.000000
v -3.071461 2.208127 1.000000
v -3.031583 2.202118 0.000000
v -3.031583 2.202118 1.000000
v -2.997321 2.180845 0.000000
v -2.997321 2.180845 1.000000
v -2.974248 2.147770 0.000000
v -2.974248 2.147770 1.000000
v -2.966117 0.000000 0.000000
v -2.966117 0.000000 1.000000
v -2.966117 2.108270 0.000000
v -2.966117 2.108270 1.000000
v -2.586602 4.850000 0.000000
v -2.586602 4.850000 1.000000
v -2.558779 4.880902 0.000000
v -2.558779 4.880902 1.000000
v -2.520791 4.897815 0.000000
v -2.520791 4.897815 1.000000
v -2.479209 4.897815 0.000000
v -2.479209 4.897815 1.000000
v -2.441221 4.880902 0.000000
v -2.441221 4.880902 1.000000
v -2.413398 4.850000 0.000000
v -2.413398 4.850000 1.000000
v -1.966117 0.000000 0.000000
v -1.966117 0.000000 1.000000
v -1.966117 2.099756 0.000000
v -1.966117 2.099756 1.000000
v -1.957867 2.139529 0.000000
v -1.957867 2.139529 1.000000
v -1.934479 2.172740 0.000000
v -1.934479 2.172740 1.000000
v -1.899812 2.193909 0.000000
v -1.899812 2.193909 1.000000
v -1.859585 2.199543 0.000000
v -1.859585 2.199543 1.000000
v -1.820436 2.188713 0.000000
v -1.820436 2.188713 1.000000
v -0.781341 1.655117 0.000000
v -0.781341 1.655117 1.000000
v -0.740286 1.644181 0.000000
v -0.740286 1.644181 1.000000
v -0.698395 1.651277 0.000000
v -0.698395 1.651277 1.000000
v -0.663232 1.675124 0.000000
v -0.663232 1.675124 1.000000
v -0.649058 1.794074 0.000000
v -0.649058 1.794074 1.000000
v -0.641143 1.711417 0.000000
v -0.641143 1.711417 1.000000
v -0.636116 1.753606 0.000000
v -0.636116 1.753606 1.000000
vt -0.000000 0.104720 0.000000
vt -0.000000 0.062832 0.000000
vt -0.000000 0.020944 0.000000
vt -0.000000 -0.020944 0.000000
vt -0.000000 -0.062832 0.000000
vt -0.000000 -0.104720 0.000000
vt 1.000000 -0.104720 0.000000
vt 1.000000 -0.062832 0.000000
vt 1.000000 -0.020944 0.000000
vt 1.000000 0.020944 0.000000
vt 1.000000 0.062832 0.000000
vt 1.000000 0.104720 0.000000
vt 0.086603 2.350000 0.000000
vt 0.058779 2.380902 0.000000
vt 0.020791 2.397815 0.000000
vt -0.020791 2.397815 0.000000
vt -0.058779 2.380902 0.000000
vt -0.086603 2.350000 0.000000
vt -1.850942 -0.705926 0.000000
vt -1.863884 -0.746394 0.000000
vt -1.858857 -0.788583 0.000000
vt -1.836768 -0.824876 0.000000
vt -1.801605 -0.848723 0.000000
vt -1.759714 -0.855819 0.000000
vt -1.718659 -0.844883 0.000000
vt -0.679564 -0.311287 0.000000
vt -0.640415 -0.300457 0.000000
vt -0.600188 -0.306091 0.000000
vt -0.565521 -0.327260 0.000000
vt -0.542133 -0.360471 0.000000
vt -0.533883 -0.400244 0.000000
vt -0.533883 -2.500000 0.000000
vt 0.466117 -2.500000 0.000000
vt 0.466117 -0.391730 0.000000
vt 0.474248 -0.352230 0.000000
vt 0.497321 -0.319154 0.000000
vt 0.531583 -0.297882 0.000000
vt 0.571461 -0.291873 0.000000
vt 0.610470 -0.302104 0.000000
vt 1.724530 -0.853421 0.000000
vt 1.765495 -0.863738 0.000000
vt 1.807066 -0.856218 0.000000
vt 1.841822 -0.832205 0.000000
vt 1.863561 -0.795983 0.000000
vt 1.868404 -0.754016 0.000000
vt 1.855485 -0.713795 0.000000
vt -3.868247 1.000000 0.000000
vt -3.868247 0.000000 0.000000
vt -0.339567 0.000000 0.000000
vt -0.339567 1.000000 0.000000
vt 0.000000 0.102260 0.000000
vt 0.000000 0.061356 0.000000
vt 0.000000 0.020452 0.000000
vt 0.000000 -0.020452 0.000000
vt 0.000000 -0.061356 0.000000
vt 0.000000 -0.102260 0.000000
vt 1.000000 -0.102260 0.000000
vt 1.000000 -0.061356 0.000000
vt 1.000000 -0.020452 0.000000
vt 1.000000 0.020452 0.000000
vt 1.000000 0.061356 0.000000
vt 1.000000 0.102260 0.000000
vt -2.099756 1.000000 0.000000
vt -2.099756 0.000000 0.000000
vt -0.000000 0.000000 0.000000
vt -0.000000 1.000000 0.000000
vt -1.000000 0.128440 0.000000
vt -1.000000 0.085627 0.000000
vt -1.000000 0.042813 0.000000
vt -1.000000 0.000000 0.000000
vt -1.000000 -0.042813 0.000000
vt -1.000000 -0.085627 0.000000
vt -1.000000 -0.128440 0.000000
vt -0.000000 -0.128440 0.000000
vt -0.000000 -0.085627 0.000000
vt -0.000000 -0.042813 0.000000
vt -0.000000 0.000000 0.000000
vt -0.000000 0.042813 0.000000
vt -0.000000 0.085627 0.000000
vt -0.000000 0.128440 0.000000
vt 0.000000 0.101517 0.000000
vt 0.000000 0.060910 0.000000
vt 0.000000 0.020303 0.000000
vt 0.000000 -0.020303 0.000000
vt 0.000000 -0.060910 0.000000
vt 0.000000 -0.101517 0.000000
vt 1.000000 -0.101517 0.000000
vt 1.000000 -0.060910 0.000000
vt 1.000000 -0.020303 0.000000
vt 1.000000 0.020303 0.000000
vt 1.000000 0.060910 0.000000
vt 1.000000 0.101517 0.000000
vt -1.573493 1.000000 0.000000
vt -1.573493 0.000000 0.000000
vt -0.330481 0.000000 0.000000
vt -0.330481 1.000000 0.000000
vt -1.000000 0.127697 0.000000
vt -1.000000 0.085131 0.000000
vt -1.000000 0.042566 0.000000
vt -1.000000 0.000000 0.000000
vt -1.000000 -0.042566 0.000000
vt -1.000000 -0.085131 0.000000
vt -1.000000 -0.127697 0.000000
vt -0.000000 -0.127697 0.000000
vt -0.000000 -0.085131 0.000000
vt -0.000000 -0.042566 0.000000
vt -0.000000 0.000000 0.000000
vt -0.000000 0.042566 0.000000
vt -0.000000 0.085131 0.000000
vt -0.000000 0.127697 0.000000
vt -0.173205 0.000000 0.000000
vt -0.173205 1.000000 0.000000
vt -3.710971 1.000000 0.000000
vt -3.710971 0.000000 0.000000
vt -0.161062 0.000000 0.000000
vt -0.161062 1.000000 0.000000
vt -2.269332 1.000000 0.000000
vt -2.269332 0.000000 0.000000
vt -0.163766 0.000000 0.000000
vt -0.163766 1.000000 0.000000
vt -1.331860 1.000000 0.000000
vt -1.331860 0.000000 0.000000
vt 2.033883 1.000000 0.000000
vt 2.033883 0.000000 0.000000
vt 3.033883 0.000000 0.000000
vt 3.033883 1.000000 0.000000
vt 0.086603 2.350000 0.000000
vt 0.058779 2.380902 0.000000
vt 0.020791 2.397815 0.000000
vt -0.020791 2.397815 0.000000
vt -0.058779 2.380902 0.000000
vt -0.086603 2.350000 0.000000
vt -1.855485 -0.713795 0.000000
vt -1.868404 -0.754016 0.000000
vt -1.863561 -0.795983 0.000000
vt -1.841822 -0.832205 0.000000
vt -1.807066 -0.856218 0.000000
vt -1.765495 -0.863738 0.000000
vt -1.724530 -0.853421 0.000000
vt -0.610470 -0.302104 0.000000
vt -0.571461 -0.291873 0.000000
vt -0.531583 -0.297882 0.000000
vt -0.497321 -0.319154 0.000000
vt -0.474248 -0.352230 0.000000
vt -0.466117 -0.391730 0.000000
vt -0.466117 -2.500000 0.000000
vt 0.533883 -2.500000 0.000000
vt 0.533883 -0.400244 0.000000
vt 0.542133 -0.360471 0.000000
vt 0.565521 -0.327260 0.000000
vt 0.600188 -0.306091 0.000000
vt 0.640415 -0.300457 0.000000
vt 0.679564 -0.311287 0.000000
vt 1.718659 -0.844883 0.000000
vt 1.759714 -0.855819 0.000000
vt 1.801605 -0.848723 0.000000
vt 1.836768 -0.824876 0.000000
vt 1.858857 -0.788583 0.000000
vt 1.863884 -0.746394 0.000000
vt 1.850942 -0.705926 0.000000
vn -0.866025 0.500000 0.000000
vn -0.587785 0.809017 0.000000
vn -0.207912 0.978148 0.000000
vn 0.207912 0.978148 0.000000
vn 0.587785 0.809017 0.000000
vn 0.866025 0.500000 0.000000
vn 0.866025 0.500000 0.000000
vn 0.587785 0.809017 0.000000
vn 0.207912 0.978148 0.000000
vn -0.207912 0.978148 0.000000
vn -0.587785 0.809017 0.000000
vn -0.866025 0.500000 0.000000
vn 0.000000 0.000000 -1.000000
vn 0.000000 0.000000 -1.000000
vn 0.000000 0.000000 -1.000000
vn 0.000000 0.000000 -1.000000
vn 0.000000 0.000000 -1.000000
vn 0.000000 0.000000 -1.000000
vn 0.000000 0.000000 -1.000000
vn 0.000000 0.000000 -1.000000
vn 0.000000 0.000000 -1.000000
vn 0.000000 0.000000 -1.000000
vn 0.000000 0.000000 -1.000000
vn 0.000000 0.000000 -1.000000
vn 0.000000 0.000000 -1.000000
vn 0.000000 0.000000 -1.000000
vn 0.000000 0.000000 -1.000000
vn 0.000000 0.000000 -1.000000
vn 0.000000 0.000000 -1.000000
vn 0.000000 0.000000 -1.000000
vn 0.000000 0.000000 -1.000000
vn 0.000000 0.000000 -1.000000
vn 0.000000 0.000000 -1.000000
vn 0.000000 0.000000 -1.000000
vn 0.000000 0.000000 -1.000000
vn 0.000000 0.000000 -1.000000
vn 0.000000 0.000000 -1.000000
vn 0.000000 0.000000 -1.000000
vn 0.000000 0.000000 -1.000000
vn 0.000000 0.000000 -1.000000
vn 0.000000 0.000000 -1.000000
vn 0.000000 0.000000 -1.000000
vn 0.000000 0.000000 -1.000000
vn 0.000000 0.000000 -1.000000
vn 0.000000 0.000000 -1.000000
vn 0.000000 0.000000 -1.000000
vn 0.866025 0.500000 0.000000
vn 0.866025 0.500000 0.000000
vn 0.866025 0.500000 0.000000
vn 0.866025 0.500000 0.000000
vn -0.456809 -0.889565 0.000000
vn -0.065318 -0.997864 0.000000
vn 0.336950 -0.941523 0.000000
vn 0.683623 -0.729835 0.000000
vn 0.917503 -0.397729 0.000000
vn 1.000000 0.000000 0.000000
vn 1.000000 0.000000 0.000000
vn 0.917503 -0.397729 0.000000
vn 0.683623 -0.729835 0.000000
vn 0.336950 -0.941523 0.000000
vn -0.065318 -0.997864 0.000000
vn -0.456809 -0.889565 0.000000
vn 1.000000 0.000000 0.000000
vn 1.000000 0.000000 0.000000
vn 1.000000 0.000000 0.000000
vn 1.000000 0.000000 0.000000
vn -0.456809 -0.889565 0.000000
vn -0.046255 -0.998930 0.000000
vn 0.372649 -0.927972 0.000000
vn 0.724284 -0.689502 0.000000
vn 0.945174 -0.326566 0.000000
vn 0.995447 0.095321 0.000000
vn 0.866025 0.500000 0.000000
vn 0.866025 0.500000 0.000000
vn 0.995447 0.095321 0.000000
vn 0.945174 -0.326566 0.000000
vn 0.724284 -0.689502 0.000000
vn 0.372649 -0.927972 0.000000
vn -0.046255 -0.998930 0.000000
vn -0.456809 -0.889565 0.000000
vn -1.000000 0.000000 0.000000
vn -0.918682 -0.394999 0.000000
vn -0.687952 -0.725756 0.000000
vn -0.345336 -0.938479 0.000000
vn 0.053444 -0.998571 0.000000
vn 0.443533 -0.896258 0.000000
vn 0.443533 -0.896258 0.000000
vn 0.053444 -0.998571 0.000000
vn -0.345336 -0.938479 0.000000
vn -0.687952 -0.725756 0.000000
vn -0.918682 -0.394999 0.000000
vn -1.000000 0.000000 0.000000
vn 0.443533 -0.896258 0.000000
vn 0.443533 -0.896258 0.000000
vn 0.443533 -0.896258 0.000000
vn 0.443533 -0.896258 0.000000
vn -0.866025 0.500000 0.000000
vn -0.995207 0.097787 0.000000
vn -0.946781 -0.321877 0.000000
vn -0.729390 -0.684099 0.000000
vn -0.381829 -0.924233 0.000000
vn 0.033875 -0.999426 0.000000
vn 0.443533 -0.896258 0.000000
vn 0.443533 -0.896258 0.000000
vn 0.033875 -0.999426 0.000000
vn -0.381829 -0.924233 0.000000
vn -0.729390 -0.684099 0.000000
vn -0.946781 -0.321877 0.000000
vn -0.995207 0.097787 0.000000
vn -0.866025 0.500000 0.000000
vn -0.866025 0.500000 0.000000
vn -0.866025 0.500000 0.000000
vn -0.866025 0.500000 0.000000
vn -0.866025 0.500000 0.000000
vn -1.000000 0.000000 0.000000
vn -1.000000 0.000000 0.000000
vn -1.000000 0.000000 0.000000
vn -1.000000 0.000000 0.000000
vn -0.456809 -0.889565 0.000000
vn -0.456809 -0.889565 0.000000
vn -0.456809 -0.889565 0.000000
vn -0.456809 -0.889565 0.000000
vn 0.000000 -1.000000 0.000000
vn 0.000000 -1.000000 0.000000
vn 0.000000 -1.000000 0.000000
vn 0.000000 -1.000000 0.000000
vn 0.000000 0.000000 1.000000
vn 0.000000 0.000000 1.000000
vn 0.000000 0.000000 1.000000
vn 0.000000 0.000000 1.000000
vn 0.000000 0.000000 1.000000
vn 0.000000 0.000000 1.000000
vn 0.000000 0.000000 1.000000
vn 0.000000 0.000000 1.000000
vn 0.000000 0.000000 1.000000
vn 0.000000 0.000000 1.000000
vn 0.000000 0.000000 1.000000
vn 0.000000 0.000000 1.000000
vn 0.000000 0.000000 1.000000
vn 0.000000 0.000000 1.000000
vn 0.000000 0.000000 1.000000
vn 0.000000 0.000000 1.000000
vn 0.000000 0.000000 1.000000
vn 0.000000 0.000000 1.000000
vn 0.000000 0.000000 1.000000
vn 0.000000 0.000000 1.000000
vn 0.000000 0.000000 1.000000
vn 0.000000 0.000000 1.000000
vn 0.000000 0.000000 1.000000
vn 0.000000 0.000000 1.000000
vn 0.000000 0.000000 1.000000
vn 0.000000 0.000000 1.000000
vn 0.000000 0.000000 1.000000
vn 0.000000 0.000000 1.000000
vn 0.000000 0.000000 1.000000
vn 0.000000 0.000000 1.000000
vn 0.000000 0.000000 1.000000
vn 0.000000 0.000000 1.000000
vn 0.000000 0.000000 1.000000
vn 0.000000 0.000000 1.000000
usemtl 33,138,33
f 29/12/12 30/1/1 31/11/11
f 31/11/11 30/1/1 32/2/2
f 31/11/11 32/2/2 33/10/10
f 33/10/10 32/2/2 34/3/3
f 33/10/10 34/3/3 35/9/9
f 35/9/9 34/3/3 36/4/4
f 35/9/9 36/4/4 37/8/8
f 37/8/8 36/4/4 38/5/5
f 37/8/8 38/5/5 39/7/7
f 39/7/7 38/5/5 40/6/6
f 31/14/14 33/15/15 29/13/13
f 29/13/13 33/15/15 35/16/16
f 29/13/13 35/16/16 37/17/17
f 37/17/17 39/18/18 29/13/13
f 29/13/13 39/18/18 21/36/36
f 29/13/13 21/36/36 19/37/37
f 63/19/19 53/26/26 39/18/18
f 39/18/18 53/26/26 51/27/27
f 39/18/18 51/27/27 49/28/28
f 67/20/20 65/21/21 63/19/19
f 63/19/19 65/21/21 61/22/22
f 63/19/19 61/22/22 59/23/23
f 59/23/23 57/24/24 63/19/19
f 63/19/19 57/24/24 55/25/25
f 63/19/19 55/25/25 53/26/26
f 49/28/28 47/29/29 39/18/18
f 39/18/18 47/29/29 21/36/36
f 21/36/36 47/29/29 23/35/35
f 23/35/35 47/29/29 45/30/30
f 23/35/35 45/30/30 27/34/34
f 27/34/34 45/30/30 43/31/31
f 27/34/34 43/31/31 25/33/33
f 25/33/33 43/31/31 41/32/32
f 19/37/37 17/38/38 29/13/13
f 29/13/13 17/38/38 15/39/39
f 29/13/13 15/39/39 5/46/46
f 5/46/46 15/39/39 13/40/40
f 5/46/46 13/40/40 11/41/41
f 11/41/41 9/42/42 5/46/46
f 5/46/46 9/42/42 7/43/43
f 5/46/46 7/43/43 3/44/44
f 3/44/44 1/45/45 5/46/46
f 40/48/48 64/49/49 39/47/47
f 39/47/47 64/49/49 63/50/50
f 53/62/62 54/51/51 51/61/61
f 51/61/61 54/51/51 52/52/52
f 51/61/61 52/52/52 50/53/53
f 51/61/61 50/53/53 49/60/60
f 49/60/60 50/53/53 48/54/54
f 49/60/60 48/54/54 47/59/59
f 47/59/59 48/54/54 46/55/55
f 47/59/59 46/55/55 45/58/58
f 45/58/58 46/55/55 43/57/57
f 43/57/57 46/55/55 44/56/56
f 44/64/64 42/65/65 43/63/63
f 43/63/63 42/65/65 41/66/66
f 56/80/80 55/67/67 58/79/79
f 58/79/79 55/67/67 57/68/68
f 58/79/79 57/68/68 60/78/78
f 60/78/78 57/68/68 59/69/69
f 60/78/78 59/69/69 62/77/77
f 62/77/77 59/69/69 61/70/70
f 62/77/77 61/70/70 66/76/76
f 66/76/76 61/70/70 65/71/71
f 66/76/76 65/71/71 68/75/75
f 68/75/75 65/71/71 67/72/72
f 68/75/75 67/72/72 64/74/74
f 64/74/74 67/72/72 63/73/73
f 27/92/92 28/81/81 23/91/91
f 23/91/91 28/81/81 24/82/82
f 23/91/91 24/82/82 22/83/83
f 23/91/91 22/83/83 21/90/90
f 21/90/90 22/83/83 20/84/84
f 21/90/90 20/84/84 19/89/89
f 19/89/89 20/84/84 18/85/85
f 19/89/89 18/85/85 17/88/88
f 17/88/88 18/85/85 15/87/87
f 15/87/87 18/85/85 16/86/86
f 16/94/94 14/95/95 15/93/93
f 15/93/93 14/95/95 13/96/96
f 6/110/110 5/97/97 2/109/109
f 2/109/109 5/97/97 1/98/98
f 2/109/109 1/98/98 3/99/99
f 2/109/109 3/99/99 4/108/108
f 4/108/108 3/99/99 7/100/100
f 4/108/108 7/100/100 8/107/107
f 8/107/107 7/100/100 9/101/101
f 8/107/107 9/101/101 10/106/106
f 10/106/106 9/101/101 11/102/102
f 10/106/106 11/102/102 12/105/105
f 12/105/105 11/102/102 14/104/104
f 14/104/104 11/102/102 13/103/103
f 29/112/112 5/113/113 30/111/111
f 30/111/111 5/113/113 6/114/114
f 27/116/116 25/117/117 28/115/115
f 28/115/115 25/117/117 26/118/118
f 53/120/120 55/121/121 54/119/119
f 54/119/119 55/121/121 56/122/122
f 25/124/124 41/125/125 26/123/123
f 26/123/123 41/125/125 42/126/126
f 38/128/128 36/129/129 40/127/127
f 40/127/127 36/129/129 34/130/130
f 40/127/127 34/130/130 32/131/131
f 32/131/131 30/132/132 40/127/127
f 40/127/127 30/132/132 22/143/143
f 40/127/127 22/143/143 48/150/150
f 48/150/150 22/143/143 24/144/144
f 48/150/150 24/144/144 46/149/149
f 46/149/149 24/144/144 28/145/145
f 46/149/149 28/145/145 44/148/148
f 44/148/148 28/145/145 26/146/146
f 44/148/148 26/146/146 42/147/147
f 6/133/133 16/140/140 30/132/132
f 30/132/132 16/140/140 18/141/141
f 30/132/132 18/141/141 20/142/142
f 2/134/134 4/135/135 6/133/133
f 6/133/133 4/135/135 8/136/136
f 6/133/133 8/136/136 10/137/137
f 10/137/137 12/138/138 6/133/133
f 6/133/133 12/138/138 14/139/139
f 6/133/133 14/139/139 16/140/140
f 20/142/142 22/143/143 30/132/132
f 48/150/150 50/151/151 40/127/127
f 40/127/127 50/151/151 52/152/152
f 40/127/127 52/152/152 54/153/153
f 40/127/127 54/153/153 64/160/160
f 64/160/160 54/153/153 56/154/154
f 64/160/160 56/154/154 58/155/155
f 58/155/155 60/156/156 64/160/160
f 64/160/160 60/156/156 62/157/157
f 64/160/160 62/157/157 66/158/158
f 66/158/158 68/159/159 64/160/160
# 68 vertices
# 160 texture params
# 160 normals
# 132 facets

# 1 groups
